<svg width="65" height="65" viewBox="0 0 65 65" fill="none" xmlns="http://www.w3.org/2000/svg">
<rect x="0.5" y="0.5" width="64" height="64" rx="3.5" fill="white" stroke="#DADCE0"/>
<path d="M32.2539 40.0019C33.8693 40.0019 35.1789 38.6923 35.1789 37.0769C35.1789 35.4615 33.8693 34.1519 32.2539 34.1519C30.6385 34.1519 29.3289 35.4615 29.3289 37.0769C29.3289 38.6923 30.6385 40.0019 32.2539 40.0019Z" fill="#E0822D"/>
<path d="M30.9558 39.2724C30.9558 39.2724 30.4105 41.5982 30.1994 42.5199C30.1563 42.7077 30.2991 42.8856 30.4913 42.8856H33.9481C34.1404 42.8856 34.2832 42.7068 34.2401 42.5199C34.029 41.5991 33.4837 39.2724 33.4837 39.2724" fill="#E0822D"/>
<path d="M42.5848 30.1795C43.3439 30.1795 43.9619 30.7976 43.9619 31.5566V46.4987C43.9619 47.2578 43.3439 47.8758 42.5848 47.8758H21.623C20.8639 47.8758 20.2458 47.2578 20.2458 46.4987V31.5566C20.2458 30.7976 20.8639 30.1795 21.623 30.1795H42.5839M42.5848 27.9337H21.623C19.6215 27.9337 18 29.5561 18 31.5566V46.4987C18 48.5002 19.6224 50.1217 21.623 50.1217H42.5839C44.5854 50.1217 46.2069 48.4993 46.2069 46.4987V31.5566C46.2069 29.5552 44.5845 27.9337 42.5839 27.9337H42.5848Z" fill="#E0822D"/>
<path d="M42.5848 30.1795C43.3439 30.1795 43.9619 30.7976 43.9619 31.5566V46.4987C43.9619 47.2578 43.3439 47.8758 42.5848 47.8758H21.623C20.8639 47.8758 20.2458 47.2578 20.2458 46.4987V31.5566C20.2458 30.7976 20.8639 30.1795 21.623 30.1795H42.5839M42.5848 27.9337H21.623C19.6215 27.9337 18 29.5561 18 31.5566V46.4987C18 48.5002 19.6224 50.1217 21.623 50.1217H42.5839C44.5854 50.1217 46.2069 48.4993 46.2069 46.4987V31.5566C46.2069 29.5552 44.5845 27.9337 42.5839 27.9337H42.5848Z" stroke="#E0822D"/>
<path d="M22.9309 30.0151C22.3111 30.0151 21.808 29.512 21.808 28.8922V21.073C21.808 15.5186 26.3267 11 31.8811 11C37.4355 11 41.9541 15.5186 41.9541 21.073V22.629C41.9541 23.2488 41.4511 23.7519 40.8312 23.7519C40.2114 23.7519 39.7083 23.2488 39.7083 22.629V21.073C39.7083 16.7574 36.1967 13.2458 31.8811 13.2458C27.5655 13.2458 24.0539 16.7574 24.0539 21.073V28.8922C24.0539 29.512 23.5508 30.0151 22.9309 30.0151Z" fill="#E0822D" stroke="#E0822D"/>
</svg>
