<svg width="168" height="43" viewBox="0 0 168 43" fill="none" xmlns="http://www.w3.org/2000/svg">
<path d="M155.456 42.9697H93.9035C92.9157 42.9697 92.2983 41.8585 92.854 40.9941L101.621 22.164C101.929 21.7318 101.929 21.1762 101.621 20.744L92.854 1.97563C92.2983 1.11129 92.854 0 93.9035 0H155.456C156.506 0 157.432 0.493913 158.049 1.35825L167.001 19.6945C167.742 20.744 167.742 22.164 167.001 23.2135L158.049 41.6115C157.494 42.4758 156.506 42.9697 155.456 42.9697Z" fill="#3FA53F"/>
<path d="M10.0016 6.60605C11.545 6.60605 12.9033 6.85299 14.0146 7.3469C15.1876 7.8408 16.1754 8.39646 16.978 9.07558C17.7806 9.7547 18.398 10.4955 18.8301 11.2981C19.2623 12.1007 19.5093 12.7799 19.5093 13.3972C19.5093 13.6442 19.5093 13.8294 19.2623 13.9529C19.0771 14.1381 18.8919 14.1998 18.6449 14.1998H17.1015C16.8545 14.1998 16.6076 14.1998 16.4224 14.0764C16.2372 13.9529 16.1137 13.7677 15.9285 13.3972C15.805 13.1503 15.6198 12.8416 15.3111 12.4094C15.0024 12.039 14.632 11.6686 14.1381 11.2981C13.6441 10.9277 13.0267 10.619 12.3476 10.3721C11.6685 10.1251 10.8042 10.0016 9.8781 10.0016C8.95203 10.0016 8.51987 10.0634 7.84075 10.2486C7.22337 10.4338 6.606 10.6808 6.11209 10.9894C5.61819 11.2981 5.186 11.7303 4.93905 12.2242C4.63036 12.7181 4.50691 13.2738 4.50691 13.9529C4.50691 14.632 4.63036 15.1259 4.93905 15.6198C5.24774 16.052 5.67992 16.4841 6.2973 16.8546C6.91468 17.225 7.71729 17.5337 8.7051 17.8424C9.69291 18.1511 10.8659 18.4598 12.2859 18.8302C13.7059 19.2006 14.9407 19.6328 15.9285 20.065C16.9163 20.4971 17.7189 21.0528 18.3362 21.6084C18.9536 22.1641 19.4475 22.8432 19.6945 23.584C20.0032 24.3249 20.1267 25.1275 20.1267 26.0536C20.1267 26.9796 19.8797 28.2144 19.3858 29.1405C18.8919 30.0665 18.2128 30.8691 17.3484 31.5482C16.4841 32.2274 15.4345 32.7213 14.1998 33.1535C12.965 33.5239 11.6068 33.7091 10.0633 33.7091C8.51989 33.7091 7.28513 33.5239 6.05037 33.0917C4.81561 32.6595 3.76603 32.1039 2.9017 31.4248C2.03737 30.7457 1.35827 30.0048 0.802626 29.2022C0.308721 28.3996 0 27.5353 0 26.7327C0 26.4857 0.0617532 26.3005 0.246968 26.177C0.432182 26.0536 0.617412 25.9301 0.802626 25.9301H2.34608C2.59303 25.9301 2.83997 25.9301 3.02518 26.0536C3.2104 26.177 3.39561 26.3622 3.51908 26.7327C3.64256 27.1031 3.88953 27.4735 4.19822 27.9057C4.50691 28.3379 4.93908 28.7083 5.43299 29.0787C5.92689 29.4491 6.606 29.7578 7.34685 30.0048C8.08771 30.2517 9.01378 30.3752 10.0016 30.3752C10.9894 30.3752 11.7303 30.2518 12.4711 30.0665C13.2737 29.8813 13.9528 29.5726 14.5702 29.2022C15.1876 28.8318 15.6198 28.3996 15.9902 27.8439C16.3606 27.2883 16.5459 26.7327 16.5459 26.0536C16.5459 25.3744 16.3606 24.8188 15.9285 24.3866C15.4963 23.9545 14.9406 23.5223 14.1998 23.1519C13.4589 22.7814 12.5328 22.411 11.4216 22.1023C10.3103 21.7936 9.07551 21.4849 7.71727 21.1145C6.48251 20.8058 5.37125 20.3736 4.50691 19.9415C3.64258 19.5093 2.90172 18.9537 2.34608 18.3363C1.79044 17.7189 1.41999 17.1015 1.17304 16.3607C0.926087 15.6198 0.802626 14.8172 0.802626 14.0146C0.802626 13.212 0.987818 12.1625 1.35825 11.2981C1.72868 10.4338 2.28433 9.63121 3.02518 8.95209C3.76604 8.27297 4.69211 7.71733 5.8034 7.3469C6.91469 6.97647 8.2112 6.72952 9.75466 6.72952L10.0016 6.60605Z" fill="white"/>
<path d="M29.8191 26.6709C29.8191 27.1648 29.8191 27.597 29.9425 28.0291C30.0043 28.4613 30.1895 28.77 30.4365 29.0787C30.6834 29.3874 30.9921 29.6343 31.4243 29.7578C31.8564 29.943 32.3503 30.0047 33.0295 30.0047H35.0051C35.252 30.0047 35.499 30.1282 35.7459 30.3134C35.9312 30.4986 36.0546 30.7456 36.0546 31.0543V32.2273C36.0546 32.4743 35.9312 32.7212 35.7459 32.9682C35.5607 33.1534 35.3138 33.2769 35.0051 33.2769H32.659C30.4982 33.2769 28.893 32.7212 27.9052 31.6099C26.9174 30.4987 26.4235 28.8317 26.4235 26.7326V17.0397H23.6453C23.3983 17.0397 23.1514 16.9163 22.9044 16.7311C22.7192 16.5458 22.5957 16.2989 22.5957 15.9902V14.8172C22.5957 14.5702 22.7192 14.3233 22.9044 14.0763C23.0896 13.8294 23.3366 13.7676 23.6453 13.7676H26.4235V7.65554C26.4235 7.40859 26.547 7.16165 26.7322 6.9147C26.9174 6.66774 27.1643 6.606 27.473 6.606H28.8313C29.0782 6.606 29.3252 6.72948 29.5721 6.9147C29.7573 7.09991 29.8808 7.34685 29.8808 7.65554V13.7676H34.6347C34.8816 13.7676 35.1286 13.8911 35.3755 14.0763C35.5607 14.2615 35.6842 14.5085 35.6842 14.8172V15.9902C35.6842 16.2371 35.5607 16.4841 35.3755 16.7311C35.1903 16.9163 34.9434 17.0397 34.6347 17.0397H29.8808V26.7326L29.8191 26.6709Z" fill="white"/>
<path d="M47.7232 13.3354C49.0815 13.3354 50.2545 13.5207 51.304 13.9528C52.3536 14.385 53.2796 14.9406 54.0205 15.6815C54.7613 16.4223 55.3787 17.2867 55.8109 18.3362C56.2431 19.3858 56.49 20.4971 56.6135 21.7318C56.6135 21.9788 56.6135 22.2257 56.6135 22.5344V24.5101C56.6135 24.8187 56.6135 25.0657 56.6135 25.2509C56.49 26.4857 56.2431 27.6587 55.8109 28.6465C55.3787 29.6343 54.8231 30.5604 54.0205 31.3013C53.2796 32.0421 52.3536 32.5977 51.304 33.0299C50.2545 33.4621 49.0815 33.6473 47.7232 33.6473C46.365 33.6473 45.1919 33.4621 44.1424 33.0299C43.0928 32.5977 42.1668 32.0421 41.4259 31.3013C40.6851 30.5604 40.0677 29.6961 39.6355 28.6465C39.2033 27.597 38.9564 26.4857 38.8329 25.2509C38.8329 25.0657 38.8329 24.8187 38.8329 24.5101C38.8329 24.2014 38.8329 23.8927 38.8329 23.5222C38.8329 23.1518 38.8329 22.8431 38.8329 22.5344C38.8329 22.2257 38.8329 21.9788 38.8329 21.7318C38.9564 20.4971 39.2033 19.3858 39.6355 18.3362C40.0677 17.2867 40.6851 16.4223 41.4259 15.6815C42.1668 14.9406 43.0928 14.385 44.1424 13.9528C45.1919 13.5207 46.365 13.3354 47.7232 13.3354ZM53.2179 25.0657C53.2179 24.6335 53.2797 24.1396 53.2797 23.5222C53.2797 22.9049 53.2796 22.3492 53.2179 21.917C53.1562 21.1762 52.971 20.4353 52.724 19.818C52.477 19.1388 52.1066 18.5832 51.6744 18.151C51.2423 17.6571 50.6866 17.2867 50.0075 17.0397C49.3284 16.7928 48.5876 16.6076 47.7232 16.6076C46.8589 16.6076 46.0563 16.731 45.4389 17.0397C44.7598 17.2867 44.2659 17.7188 43.772 18.151C43.3398 18.6449 42.9694 19.2006 42.7224 19.818C42.4755 20.4971 42.2903 21.1762 42.2285 21.917C42.2285 22.3492 42.1668 22.9049 42.1668 23.5222C42.1668 24.1396 42.1668 24.6335 42.2285 25.0657C42.2903 25.8065 42.4755 26.5474 42.7224 27.1648C42.9694 27.8439 43.3398 28.3996 43.772 28.8317C44.2041 29.3256 44.7598 29.6961 45.4389 29.943C46.118 30.19 46.8589 30.3752 47.7232 30.3752C48.5876 30.3752 49.3901 30.2517 50.0075 29.943C50.6866 29.6961 51.1805 29.2639 51.6744 28.8317C52.1066 28.3378 52.477 27.7822 52.724 27.1648C52.971 26.4857 53.1562 25.8065 53.2179 25.0657Z" fill="white"/>
<path d="M71.3071 13.7677C71.5541 13.7677 71.801 13.8912 72.048 14.0764C72.2332 14.2616 72.3567 14.5085 72.3567 14.8172V15.9903C72.3567 16.2372 72.2332 16.4842 72.048 16.7311C71.8628 16.9781 71.6158 17.0398 71.3071 17.0398H69.1463C66.2446 17.0398 64.8246 18.4598 64.8246 21.3615V32.3509C64.8246 32.5978 64.7011 32.8448 64.5159 33.0917C64.3307 33.3387 64.0838 33.4004 63.7751 33.4004H62.4168C62.1699 33.4004 61.9229 33.2769 61.676 33.0917C61.4908 32.9065 61.3673 32.6596 61.3673 32.3509V14.879C61.3673 14.632 61.4908 14.3851 61.676 14.1381C61.8612 13.8912 62.1081 13.8294 62.4168 13.8294H63.7751C64.022 13.8294 64.269 13.9529 64.5159 14.1381C64.7011 14.3233 64.8246 14.5703 64.8246 14.879V16.052C65.3185 15.3111 65.9359 14.7555 66.615 14.3851C67.2941 14.0146 68.2202 13.8294 69.3315 13.8294H71.3071V13.7677Z" fill="white"/>
<path d="M81.3088 39.5126C81.2471 39.6978 81.1236 39.883 80.9384 40.13C80.7532 40.3152 80.5062 40.4386 80.1975 40.4386H78.6541C78.4071 40.4386 78.1602 40.3769 78.0367 40.1917C77.8515 40.0065 77.7897 39.8212 77.7897 39.5743C77.7897 39.3273 77.7897 39.3891 77.7897 39.3274L81.3706 31.4866L73.962 15.0025C73.962 14.9408 73.962 14.8173 73.962 14.7556C73.962 14.5086 74.0237 14.3234 74.2089 14.1382C74.3941 13.953 74.5793 13.8912 74.8263 13.8912H76.3697C76.6784 13.8912 76.9254 14.0147 77.1106 14.1999C77.2958 14.3851 77.4193 14.5704 77.481 14.8173L83.2844 27.5971L89.1495 14.8173C89.2113 14.6321 89.3347 14.4469 89.52 14.1999C89.7052 14.0147 89.9521 13.8912 90.2608 13.8912H91.8043C92.0512 13.8912 92.2982 13.953 92.4217 14.1382C92.6069 14.3234 92.6686 14.5086 92.6686 14.7556C92.6686 15.0025 92.6686 14.9408 92.6686 15.0025L81.3706 39.5743L81.3088 39.5126Z" fill="white"/>
<path d="M110.326 17.1634C110.326 15.8669 110.635 14.5704 111.005 13.3974C111.438 12.2243 112.055 11.1748 112.919 10.3105C113.784 9.44613 114.833 8.70526 116.13 8.21135C117.426 7.71745 118.908 7.47051 120.637 7.47051C122.365 7.47051 123.723 7.71745 124.958 8.21135C126.193 8.70526 127.243 9.26092 128.045 10.0018C128.848 10.7426 129.527 11.4835 129.897 12.2861C130.329 13.0887 130.515 13.8295 130.576 14.4469C130.576 14.6939 130.576 14.8791 130.329 15.0026C130.083 15.126 129.959 15.2495 129.774 15.2495H128.292C127.736 15.2495 127.366 15.126 127.243 14.8791C126.934 14.3234 126.625 13.7678 126.255 13.2739C125.884 12.78 125.452 12.3478 124.958 11.9774C124.464 11.607 123.847 11.2983 123.106 11.1131C122.365 10.8661 121.563 10.8044 120.575 10.8044C119.587 10.8044 118.661 10.9278 117.858 11.2365C117.056 11.5452 116.315 11.9157 115.698 12.4713C115.08 13.0269 114.586 13.7061 114.278 14.5704C113.907 15.373 113.722 16.3608 113.722 17.4721C113.722 18.5834 113.66 19.5712 113.66 20.4973C113.66 21.4233 113.66 22.4111 113.722 23.5224C113.722 24.6954 113.969 25.6833 114.278 26.5476C114.648 27.4119 115.142 28.1528 115.698 28.7084C116.315 29.2641 116.994 29.6962 117.858 30.0049C118.661 30.3136 119.587 30.4371 120.575 30.4371C121.563 30.4371 122.427 30.3136 123.291 30.0667C124.156 29.8197 124.897 29.4493 125.514 28.8936C126.131 28.338 126.625 27.6589 126.996 26.7946C127.366 25.9302 127.551 24.8807 127.551 23.5842V22.5964H122.365C122.118 22.5964 121.871 22.4729 121.686 22.2877C121.501 22.1024 121.377 21.8555 121.377 21.6085V20.312C121.377 20.0651 121.501 19.8181 121.686 19.6329C121.871 19.4477 122.118 19.3242 122.365 19.3242H130.021C130.268 19.3242 130.515 19.4477 130.7 19.6329C130.885 19.8181 131.009 20.0651 131.009 20.312V23.7694C131.009 25.1894 130.762 26.5476 130.329 27.7824C129.897 29.0171 129.218 30.0666 128.292 30.931C127.366 31.7953 126.316 32.4745 125.02 32.9684C123.723 33.4623 122.242 33.7092 120.637 33.7092C119.031 33.7092 117.364 33.4623 116.13 32.9066C114.833 32.4127 113.784 31.6719 112.919 30.8075C112.055 29.9432 111.438 28.8936 111.005 27.6589C110.573 26.4241 110.326 25.1276 110.265 23.7694C110.203 21.6703 110.203 19.5094 110.265 17.4104L110.326 17.1634Z" fill="white"/>
<path d="M143.356 13.953C144.652 13.953 145.825 14.1382 146.813 14.5703C147.801 15.0025 148.665 15.4964 149.406 16.2373C150.147 16.9781 150.702 17.7807 151.135 18.7685C151.567 19.7563 151.814 20.8676 151.937 22.0407C151.937 22.2876 151.937 22.5346 151.937 22.8433V24.6954C151.937 25.0041 151.937 25.251 151.937 25.4363C151.814 26.671 151.567 27.7206 151.135 28.7084C150.702 29.6962 150.147 30.5605 149.406 31.2396C148.665 31.9187 147.801 32.4744 146.813 32.9066C145.825 33.277 144.652 33.5239 143.356 33.5239C142.059 33.5239 140.886 33.3387 139.898 32.9066C138.91 32.5361 138.046 31.9805 137.305 31.2396C136.564 30.5605 136.009 29.6962 135.577 28.7084C135.144 27.7206 134.898 26.6093 134.774 25.4363C134.774 25.251 134.774 25.0041 134.774 24.6954C134.774 24.3867 134.774 24.078 134.774 23.7693C134.774 23.4606 134.774 23.1519 134.774 22.8433C134.774 22.5346 134.774 22.2876 134.774 22.0407C134.898 20.8676 135.144 19.7563 135.577 18.7685C136.009 17.7807 136.564 16.9164 137.305 16.2373C138.046 15.5581 138.91 15.0025 139.898 14.5703C140.886 14.1382 142.059 13.953 143.356 13.953ZM148.665 25.2511C148.665 24.8189 148.727 24.325 148.727 23.7693C148.727 23.2137 148.727 22.658 148.665 22.2259C148.603 21.485 148.418 20.8059 148.171 20.1885C147.924 19.5711 147.616 19.0155 147.183 18.5833C146.751 18.1512 146.196 17.7807 145.578 17.472C144.961 17.2251 144.22 17.1016 143.356 17.1016C142.491 17.1016 141.75 17.2251 141.133 17.472C140.516 17.719 139.96 18.0894 139.528 18.5833C139.096 19.0155 138.725 19.5711 138.54 20.1885C138.293 20.8059 138.17 21.485 138.046 22.2259C138.046 22.658 137.984 23.1519 137.984 23.7693C137.984 24.3867 137.984 24.8806 138.046 25.2511C138.108 25.9919 138.293 26.671 138.54 27.2884C138.787 27.9058 139.096 28.4614 139.528 28.8936C139.96 29.3258 140.516 29.6962 141.133 30.0049C141.75 30.2518 142.491 30.3753 143.356 30.3753C144.22 30.3753 144.961 30.2518 145.578 30.0049C146.196 29.7579 146.751 29.3875 147.183 28.8936C147.616 28.4614 147.924 27.9058 148.171 27.2884C148.418 26.671 148.542 25.9919 148.665 25.2511Z" fill="white"/>
</svg>
